<svg width="120" height="120" viewBox="0 0 120 120" fill="none" xmlns="http://www.w3.org/2000/svg">
<g clip-path="url(#clip0_586_1575)">
<path d="M100 20C102.523 19.9992 104.953 20.952 106.803 22.6675C108.653 24.3829 109.786 26.7342 109.975 29.25L110 30V90C110.001 92.5229 109.048 94.9528 107.333 96.8027C105.617 98.6526 103.266 99.7858 100.75 99.975L100 100H20C17.4771 100.001 15.0472 99.048 13.1973 97.3325C11.3474 95.6171 10.2142 93.2658 10.025 90.75L10 90V85H20V90H100V37.07L65.3 71.77C63.9875 73.0823 62.2351 73.8613 60.3815 73.9564C58.5279 74.0516 56.7049 73.456 55.265 72.285L54.695 71.77L20 37.07V40H10V30C9.9992 27.4771 10.952 25.0472 12.6675 23.1973C14.3829 21.3474 16.7342 20.2142 19.25 20.025L20 20H100ZM30 65C31.3261 65 32.5979 65.5268 33.5355 66.4645C34.4732 67.4021 35 68.6739 35 70C35 71.3261 34.4732 72.5979 33.5355 73.5355C32.5979 74.4732 31.3261 75 30 75H5C3.67392 75 2.40215 74.4732 1.46447 73.5355C0.526784 72.5979 0 71.3261 0 70C0 68.6739 0.526784 67.4021 1.46447 66.4645C2.40215 65.5268 3.67392 65 5 65H30ZM92.93 30H27.07L60 62.93L92.93 30ZM25 50C26.2744 50.0014 27.5002 50.4894 28.4268 51.3642C29.3535 52.2391 29.9112 53.4348 29.9859 54.707C30.0605 55.9792 29.6466 57.2319 28.8287 58.2092C28.0107 59.1864 26.8505 59.8145 25.585 59.965L25 60H10C8.7256 59.9986 7.49984 59.5106 6.57316 58.6358C5.64648 57.7609 5.08883 56.5652 5.01414 55.293C4.93945 54.0208 5.35337 52.7681 6.17132 51.7908C6.98928 50.8136 8.14952 50.1855 9.415 50.035L10 50H25Z" fill="#041B3E"/>
</g>
<defs>
<clipPath id="clip0_586_1575">
<rect width="120" height="120" fill="white"/>
</clipPath>
</defs>
</svg>
