<?xml version="1.0" encoding="UTF-8"?>
<svg id="Modo_de_aislamiento" data-name="Modo de aislamiento" xmlns="http://www.w3.org/2000/svg" xmlns:xlink="http://www.w3.org/1999/xlink" version="1.1" viewBox="0 0 442.384 135.4">
  <defs>
    <style>
      .cls-1 {
        fill: #fce600;
      }

      .cls-1, .cls-2, .cls-3, .cls-4, .cls-5, .cls-6 {
        stroke-width: 0px;
      }

      .cls-7 {
        clip-path: url(#clippath);
      }

      .cls-2 {
        fill: #f7ed61;
      }

      .cls-8 {
        fill: none;
        stroke: #cecece;
        stroke-miterlimit: 10;
      }

      .cls-3 {
        fill: #000;
      }

      .cls-4 {
        fill: #fff;
      }

      .cls-5 {
        fill: #01306d;
      }

      .cls-6 {
        fill: #fcfcfc;
      }
    </style>
    <clipPath id="clippath">
      <rect class="cls-8" x=".5" y=".5" width="441.384" height="134.4" rx="11.263" ry="11.263"/>
    </clipPath>
  </defs>
  <g>
    <g class="cls-7">
      <rect class="cls-2" x=".5" y=".5" width="166.588" height="134.4"/>
      <g>
        <path class="cls-5" d="M27.688,65.159c.169-.565.152-1.157.233-1.734.552-3.931,2.03-7.5,4.217-10.788,2.817-4.235,6.48-7.618,10.669-10.457,6.083-4.124,12.785-6.832,19.89-8.595,7.53-1.868,15.179-2.556,22.921-2.199,9.067.418,17.837,2.208,26.188,5.838,5.782,2.514,11.067,5.793,15.531,10.293,3.364,3.391,5.983,7.263,7.475,11.838.761,2.334,1.129,4.732,1.171,7.184.055,3.201-.108,6.377-.912,9.497-1.266,4.913-3.644,9.229-6.973,13.034-4.198,4.799-9.353,8.288-15.112,10.934-4.704,2.162-9.626,3.642-14.703,4.623-6.962,1.345-13.992,1.741-21.064,1.4-6.43-.31-12.757-1.284-18.922-3.178-6.698-2.058-12.918-5.048-18.333-9.561-4.972-4.143-8.739-9.144-10.798-15.338-.758-2.28-1.221-4.619-1.393-7.016-.007-.095.034-.212-.084-.276,0-1.833,0-3.666,0-5.499ZM80.878,99.909c7.149-.062,12.638-.638,18.055-1.845,6.145-1.369,12.023-3.456,17.508-6.575,4.657-2.648,8.824-5.894,12.117-10.163,3.59-4.655,5.586-9.858,5.315-15.815-.024-.536-.02-.538-.527-.419-2.284.54-4.561,1.108-6.819,1.75-4.687,1.334-9.312,2.847-13.823,4.698-.323.132-.467.199-.253.601.528.995.668,2.074.422,3.182-.546,2.452-3.174,4.296-5.771,4.063q-.766-.069-.847.664c-.008.073-.025.145-.036.218-.456,2.954-3.99,4.954-6.649,4.528-.29-.046-.423-.016-.475.294-.068.397-.264.749-.48,1.086-1.308,2.047-3.838,3.092-6.196,2.538-.25-.059-.364-.021-.495.193-.241.396-.583.705-.98.947-1.23.751-2.58,1-3.997.893-1.511-.114-2.91-.629-4.244-1.317-.31-.16-.485-.16-.757.083-2.868,2.561-7.341,1.934-9.331-1.353-.399-.659-.717-1.021-1.477-.665-.063.029-.146.019-.22.019-2.481.015-4.402-.961-5.608-3.182-.101-.186-.188-.254-.405-.206-.435.094-.879.125-1.324.076-2.543-.278-4.67-2.078-5.332-4.54-.079-.295-.176-.355-.473-.33-3.93.335-6.745-3.19-5.539-6.932.072-.223.058-.353-.145-.475-.443-.267-.866-.567-1.317-.816-2.871-1.582-5.941-2.674-9.057-3.652-3.666-1.151-7.412-1.987-11.151-2.856-.688-.16-.689-.164-.732.539-.229,3.758.442,7.348,2.008,10.772,2.099,4.591,5.331,8.273,9.233,11.4,5.457,4.373,11.666,7.294,18.317,9.333,7.522,2.306,15.234,3.286,21.486,3.261ZM68.621,49.369c-.026-.039-.052-.079-.079-.118-.152.025-.307.038-.456.076-.815.207-1.643.377-2.441.639-3.02.99-6.074,1.155-9.185.505-5.071-1.059-9.99-2.609-14.802-4.511-.306-.121-.494-.087-.74.115-1.96,1.61-3.777,3.362-5.368,5.341-2.49,3.099-4.333,6.52-5.231,10.421-.079.344.046.401.299.469.67.18,1.332.389,2.006.551,3.615.872,7.232,1.74,10.76,2.928,3.459,1.165,6.88,2.421,9.931,4.487.171.116.251.059.367-.047,2.149-1.941,5.466-1.777,7.397.401.145.163.247.179.431.057.921-.61,1.939-.946,3.046-.939,2.216.015,4.091.73,5.289,2.719.163.271.318.167.508.109,2.092-.63,4.737.145,6.087,1.795.938,1.146,1.218,2.503,1.196,3.939-.005.304.019.418.38.434,2.4.103,4.196,1.232,5.322,3.34.883,1.654.92,3.39.253,5.141-.055.146-.226.293.051.427,1.273.616,2.577,1.134,4.02,1.094.832-.023,1.652-.176,2.338-.705.443-.341.441-.434.08-.831-1.323-1.455-2.647-2.91-3.972-4.363-.161-.176-.31-.358-.401-.579-.089-.216-.104-.434.062-.624.175-.201.398-.237.646-.169.295.082.516.281.742.471,1.622,1.361,3.137,2.836,4.622,4.342.211.214.429.411.725.487,1.122.287,2.223.222,3.2-.422,1.385-.912,1.726-2.151.506-3.475-1.603-1.74-3.161-3.521-4.735-5.287-.127-.142-.245-.298-.341-.462-.143-.244-.191-.505.028-.736.214-.225.482-.204.741-.101.292.116.53.319.766.522,1.85,1.595,3.581,3.316,5.304,5.043.977.979,2.116,1.156,3.386.826.652-.169,1.228-.508,1.743-.938,1.463-1.22,1.551-2.911.199-4.278-2.225-2.251-4.465-4.486-6.702-6.726-.179-.179-.351-.36-.457-.593-.12-.263-.134-.517.092-.734.208-.199.447-.199.699-.089.289.127.526.326.762.528,2.497,2.133,4.923,4.345,7.341,6.565,1.017.933,2.18,1.172,3.449.786,1.229-.373,2.243-1.06,2.426-2.47.144-1.11-.298-2.021-1.131-2.747-5.374-4.681-10.748-9.364-16.211-13.942-1.789-1.499-3.549-3.037-5.495-4.341-2.318-1.554-4.685-1.721-7.133-.338-.514.29-1.026.586-1.524.901-1.741,1.1-3.313,2.43-4.935,3.688-2.338,1.815-4.9,2.61-7.841,1.981-1.223-.261-2.418-.591-3.359-1.479-1.046-.986-1.102-2.237-.132-3.298,1.557-1.702,3.131-3.389,4.704-5.076.236-.254.509-.474.764-.71ZM84.593,44.444c-2.002.026-3.584.188-5.149.543-3.197.725-5.835,2.422-8.187,4.633-2.244,2.109-4.258,4.437-6.373,6.669-.051.053-.092.115-.139.172-.217.264-.206.497.072.721.279.226.58.412.92.521,2.238.724,4.388.624,6.417-.673,1.111-.71,2.139-1.529,3.174-2.34,1.524-1.193,3.01-2.441,4.729-3.355,2.942-1.566,5.835-1.595,8.667.301,1.119.749,2.203,1.543,3.243,2.396,6.263,5.141,12.357,10.48,18.469,15.797.258.224.447.267.767.127,1.202-.526,2.413-1.034,3.636-1.512,5.973-2.334,12.086-4.217,18.348-5.609.292-.065.376-.175.308-.476-.3-1.338-.673-2.652-1.185-3.925-1.812-4.513-4.778-8.173-8.368-11.387-.483-.432-.863-.539-1.401-.185-.242.16-.536.242-.809.355-4.113,1.707-8.367,2.809-12.842,2.91-4.937.112-9.603-1.016-14.065-3.091-3.368-1.566-6.891-2.539-10.233-2.593ZM43.212,44.36c.117.157.275.166.409.215,4.01,1.467,8.11,2.625,12.253,3.653,3.016.748,5.971.786,8.954-.168,2.025-.647,4.098-1.146,6.247-1.196.172-.004.31-.07.441-.178,3.833-3.165,8.32-4.379,13.195-4.285,3.835.074,7.467,1.116,10.922,2.74,5.988,2.814,12.2,3.674,18.694,2.272,2.446-.528,4.805-1.32,7.14-2.335-.167-.127-.304-.234-.445-.337-1.84-1.343-3.769-2.547-5.782-3.612-8.27-4.378-17.146-6.629-26.42-7.447-4.117-.363-8.241-.387-12.368-.115-4.775.315-9.485,1.039-14.118,2.238-5.718,1.48-11.168,3.616-16.24,6.667-.983.591-1.947,1.213-2.882,1.888ZM60.57,74.573c-.05-.365-.086-.636-.123-.908-.24-1.73-1.773-2.95-3.553-2.827-1.655.115-3.025,1.581-3.004,3.269.017,1.399.678,2.444,1.957,3.012,1.277.568,2.479.351,3.554-.554.105-.089.173-.314.388-.18.177.11.269.269.252.482-.01.118-.024.235-.035.353-.054.607-.028,1.207.09,1.808.449,2.286,3.498,4.33,5.885,2.535.192-.144.412-.282.651-.147.264.15.221.427.193.678-.095.849.176,1.572.758,2.183.5.525,1.124.856,1.798,1.099,1.122.405,2.149.258,3.057-.546.111-.098.219-.2.34-.285.408-.289.745-.138.814.362.049.35.063.709.149,1.05.534,2.112,2.502,3.419,4.705,3.141,2.026-.256,3.624-2.081,3.648-4.165.029-2.634-2.507-4.723-5.057-4.154-.416.093-.817.253-1.23.366-.45.123-.69-.104-.599-.559.029-.143.094-.279.14-.419.259-.777.414-1.571.372-2.393-.071-1.415-.665-2.496-2.017-3.066-1.453-.613-2.843-.621-4.102.473-.185.16-.339.411-.636.313-.323-.106-.267-.423-.325-.673-.013-.057-.011-.118-.022-.176-.25-1.348-.981-2.278-2.323-2.69-1.988-.611-4.072.148-5.271,1.93-.137.203-.27.409-.452.686ZM68.651,49.222l-.016.023.028.002-.013-.024Z"/>
        <path class="cls-1" d="M80.878,99.909c-6.251.024-13.964-.955-21.486-3.261-6.65-2.039-12.86-4.96-18.317-9.333-3.902-3.127-7.133-6.809-9.233-11.4-1.566-3.424-2.237-7.014-2.008-10.772.043-.703.044-.699.732-.539,3.738.869,7.485,1.705,11.151,2.856,3.115.978,6.186,2.07,9.057,3.652.452.249.875.55,1.317.816.202.122.217.252.145.475-1.206,3.742,1.609,7.266,5.539,6.932.297-.025.394.034.473.33.661,2.462,2.789,4.262,5.332,4.54.445.049.889.018,1.324-.076.217-.047.305.021.405.206,1.206,2.222,3.127,3.198,5.608,3.182.074,0,.157.01.22-.019.76-.356,1.078.007,1.477.665,1.99,3.287,6.463,3.914,9.331,1.353.272-.243.447-.243.757-.083,1.334.688,2.733,1.203,4.244,1.317,1.417.107,2.766-.142,3.997-.893.397-.242.739-.551.98-.947.13-.215.245-.252.495-.193,2.358.553,4.888-.491,6.196-2.538.216-.337.412-.69.48-1.086.053-.31.185-.341.475-.294,2.659.426,6.192-1.574,6.649-4.528.011-.073.028-.145.036-.218q.082-.733.847-.664c2.597.234,5.224-1.61,5.771-4.063.247-1.108.106-2.187-.422-3.182-.214-.403-.069-.469.253-.601,4.511-1.85,9.136-3.363,13.823-4.698,2.258-.643,4.535-1.21,6.819-1.75.507-.12.503-.118.527.419.271,5.957-1.725,11.16-5.315,15.815-3.293,4.269-7.46,7.514-12.117,10.163-5.485,3.119-11.363,5.206-17.508,6.575-5.417,1.207-10.906,1.783-18.055,1.845Z"/>
        <path class="cls-6" d="M68.621,49.369c-.256.236-.528.456-.764.71-1.573,1.687-3.147,3.374-4.704,5.076-.97,1.061-.915,2.312.132,3.298.941.887,2.136,1.217,3.359,1.479,2.941.629,5.504-.166,7.841-1.981,1.622-1.259,3.194-2.588,4.935-3.688.499-.315,1.011-.611,1.524-.901,2.447-1.383,4.814-1.217,7.133.338,1.946,1.305,3.706,2.842,5.495,4.341,5.463,4.578,10.837,9.26,16.211,13.942.833.726,1.275,1.637,1.131,2.747-.183,1.41-1.196,2.097-2.426,2.47-1.269.386-2.431.147-3.449-.786-2.419-2.219-4.845-4.432-7.341-6.565-.236-.202-.473-.401-.762-.528-.252-.111-.491-.11-.699.089-.226.217-.212.471-.092.734.106.233.278.414.457.593,2.236,2.24,4.477,4.475,6.702,6.726,1.352,1.367,1.264,3.058-.199,4.278-.516.43-1.091.768-1.743.938-1.27.33-2.409.153-3.386-.826-1.724-1.727-3.454-3.448-5.304-5.043-.236-.203-.474-.406-.766-.522-.259-.103-.526-.124-.741.101-.22.231-.171.491-.028.736.096.164.214.319.341.462,1.574,1.766,3.132,3.547,4.735,5.287,1.22,1.325.879,2.564-.506,3.475-.977.643-2.078.709-3.2.422-.296-.076-.514-.273-.725-.487-1.485-1.506-3-2.981-4.622-4.342-.226-.189-.446-.389-.742-.471-.248-.069-.471-.032-.646.169-.166.191-.151.409-.062.624.091.221.241.404.401.579,1.325,1.453,2.649,2.908,3.972,4.363.361.397.363.49-.08.831-.686.529-1.506.681-2.338.705-1.443.041-2.747-.478-4.02-1.094-.277-.134-.106-.281-.051-.427.667-1.751.63-3.487-.253-5.141-1.126-2.108-2.922-3.236-5.322-3.34-.362-.016-.385-.13-.38-.434.022-1.436-.258-2.793-1.196-3.939-1.35-1.65-3.995-2.425-6.087-1.795-.19.057-.345.161-.508-.109-1.199-1.989-3.073-2.704-5.289-2.719-1.106-.007-2.125.329-3.046.939-.184.122-.287.107-.431-.057-1.931-2.178-5.247-2.342-7.397-.401-.117.105-.196.162-.367.047-3.052-2.065-6.472-3.321-9.931-4.487-3.528-1.189-7.145-2.057-10.76-2.928-.674-.162-1.336-.372-2.006-.551-.253-.068-.378-.125-.299-.469.897-3.901,2.741-7.322,5.231-10.421,1.59-1.979,3.407-3.731,5.368-5.341.247-.202.434-.237.74-.115,4.812,1.902,9.731,3.453,14.802,4.511,3.111.649,6.165.485,9.185-.505.798-.262,1.626-.432,2.441-.639.149-.038.304-.051.456-.076.026.039.052.079.079.118Z"/>
        <path class="cls-6" d="M84.593,44.444c3.342.054,6.864,1.027,10.233,2.593,4.462,2.075,9.128,3.203,14.065,3.091,4.475-.101,8.729-1.203,12.842-2.91.272-.113.566-.195.809-.355.538-.354.918-.247,1.401.185,3.59,3.213,6.556,6.874,8.368,11.387.511,1.274.884,2.588,1.185,3.925.068.301-.016.411-.308.476-6.262,1.392-12.375,3.274-18.348,5.609-1.222.478-2.433.986-3.636,1.512-.32.14-.509.097-.767-.127-6.112-5.317-12.206-10.656-18.469-15.797-1.04-.854-2.123-1.647-3.243-2.396-2.833-1.896-5.725-1.867-8.667-.301-1.719.915-3.205,2.163-4.729,3.355-1.036.81-2.063,1.63-3.174,2.34-2.029,1.297-4.18,1.397-6.417.673-.339-.11-.64-.296-.92-.521-.277-.224-.288-.456-.072-.721.047-.057.089-.119.139-.172,2.114-2.232,4.128-4.56,6.373-6.669,2.353-2.211,4.99-3.908,8.187-4.633,1.565-.355,3.148-.518,5.149-.543Z"/>
        <path class="cls-1" d="M43.212,44.36c.935-.675,1.899-1.297,2.882-1.888,5.072-3.051,10.522-5.187,16.24-6.667,4.634-1.199,9.343-1.923,14.118-2.238,4.126-.272,8.25-.248,12.368.115,9.274.818,18.149,3.07,26.42,7.447,2.013,1.065,3.942,2.269,5.782,3.612.141.103.278.21.445.337-2.335,1.015-4.695,1.807-7.14,2.335-6.494,1.402-12.706.541-18.694-2.272-3.455-1.624-7.087-2.666-10.922-2.74-4.874-.094-9.362,1.12-13.195,4.285-.131.108-.268.174-.441.178-2.149.05-4.221.548-6.247,1.196-2.983.953-5.938.916-8.954.168-4.143-1.027-8.243-2.186-12.253-3.653-.133-.049-.292-.058-.409-.215Z"/>
        <path class="cls-6" d="M60.57,74.573c.182-.277.315-.483.452-.686,1.199-1.782,3.283-2.541,5.271-1.93,1.341.412,2.073,1.342,2.323,2.69.011.058.008.119.022.176.058.249.002.566.325.673.297.098.452-.153.636-.313,1.259-1.094,2.649-1.086,4.102-.473,1.352.57,1.946,1.652,2.017,3.066.041.822-.113,1.616-.372,2.393-.047.14-.111.276-.14.419-.092.455.149.681.599.559.413-.113.813-.273,1.23-.366,2.55-.569,5.086,1.52,5.057,4.154-.023,2.084-1.622,3.91-3.648,4.165-2.202.278-4.171-1.029-4.705-3.141-.086-.341-.1-.7-.149-1.05-.07-.499-.406-.651-.814-.362-.12.085-.229.187-.34.285-.908.804-1.935.952-3.057.546-.673-.243-1.298-.575-1.798-1.099-.582-.611-.852-1.334-.758-2.183.028-.251.072-.528-.193-.678-.239-.136-.459.002-.651.147-2.387,1.795-5.436-.249-5.885-2.535-.118-.601-.143-1.201-.09-1.808.01-.118.025-.235.035-.353.018-.213-.075-.372-.252-.482-.215-.134-.283.091-.388.18-1.075.904-2.277,1.122-3.554.554-1.279-.569-1.939-1.614-1.957-3.012-.021-1.688,1.349-3.154,3.004-3.269,1.78-.123,3.313,1.097,3.553,2.827.038.271.074.543.123.908Z"/>
        <polygon class="cls-6" points="68.651 49.222 68.663 49.247 68.635 49.245 68.651 49.222"/>
      </g>
      <rect class="cls-4" x="166.967" y=".5" width="274.917" height="134.4"/>
    </g>
    <rect class="cls-8" x=".5" y=".5" width="441.384" height="134.4" rx="11.263" ry="11.263"/>
  </g>
  <g>
    <path class="cls-3" d="M196.339,59.941l8.068-22.661h2.955l8.068,22.661h-3.055l-2.291-6.807h-8.434l-2.291,6.807h-3.021ZM205.836,40.7l-3.403,10.094h6.873l-3.387-10.094h-.083Z"/>
    <path class="cls-3" d="M220.695,57.617h-.083v8.118h-2.855v-23.242h2.739v2.507h.083c1.013-1.644,2.806-2.772,5.146-2.772,3.935,0,6.84,3.021,6.84,8.185v1.61c0,5.097-2.855,8.201-6.956,8.201-2.225,0-3.935-1.062-4.914-2.606ZM229.693,51.807v-1.295c0-3.669-1.627-5.827-4.449-5.827-2.905,0-4.682,2.341-4.682,5.811v1.312c0,3.569,1.793,5.927,4.765,5.927,2.606,0,4.366-2.092,4.366-5.927Z"/>
    <path class="cls-3" d="M239.255,57.617h-.083v8.118h-2.855v-23.242h2.739v2.507h.083c1.013-1.644,2.806-2.772,5.146-2.772,3.935,0,6.84,3.021,6.84,8.185v1.61c0,5.097-2.855,8.201-6.956,8.201-2.225,0-3.935-1.062-4.914-2.606ZM248.254,51.807v-1.295c0-3.669-1.627-5.827-4.449-5.827-2.905,0-4.682,2.341-4.682,5.811v1.312c0,3.569,1.793,5.927,4.765,5.927,2.606,0,4.366-2.092,4.366-5.927Z"/>
  </g>
  <g>
    <path class="cls-3" d="M202.678,86.915c0,4.75,2.004,7.385,5.548,7.385,3.08,0,5.028-2.022,5.084-4.861h4.824v.482c0,5.084-4.193,8.609-9.945,8.609-6.754,0-10.595-4.435-10.595-11.652v-2.895c0-7.273,3.841-11.745,10.595-11.745,5.771,0,9.945,3.618,9.945,8.906v.464h-4.824c-.056-3.006-2.004-5.14-5.084-5.14-3.544,0-5.548,2.672-5.548,7.496v2.95Z"/>
    <path class="cls-3" d="M220.529,88.993v-1.8c0-5.771,3.544-9.185,8.721-9.185,5.362,0,8.684,3.655,8.684,9.314v1.93h-12.617v.538c0,2.987,1.688,4.88,4.175,4.88,1.948,0,3.321-.965,3.729-2.561h4.527c-.464,3.154-3.024,6.29-8.294,6.29-5.399,0-8.925-3.377-8.925-9.407ZM233.202,86.154v-.037c0-2.542-1.54-4.472-3.915-4.472-2.394,0-3.971,1.948-3.971,4.472v.037h7.886Z"/>
    <path class="cls-3" d="M241.181,78.361h4.88v2.709h.204c.445-1.262,1.911-3.006,4.602-3.006.668,0,1.169.056,1.559.13v4.23c-.39-.111-1.169-.167-1.93-.167-3.21,0-4.323,1.93-4.323,4.564v11.226h-4.991v-19.687Z"/>
    <path class="cls-3" d="M257.212,73.648h4.75v4.713h3.822v3.785h-3.822v9.704c0,1.967.835,2.561,2.857,2.561.408,0,.816-.019,1.039-.037v3.618c-.371.074-1.243.167-2.227.167-4.898,0-6.513-1.651-6.513-5.678v-10.335h-2.783v-3.785h2.876v-4.713Z"/>
    <path class="cls-3" d="M271.853,70.902c1.521,0,2.765,1.058,2.765,2.579s-1.243,2.561-2.765,2.561c-1.503,0-2.765-1.039-2.765-2.561s1.262-2.579,2.765-2.579ZM269.422,78.361h4.88v19.687h-4.88v-19.687Z"/>
    <path class="cls-3" d="M280.111,82.146h-2.82v-3.785h2.82v-1.967c0-3.952,2.041-5.566,6.605-5.566,1.15,0,1.763.093,2.134.13v3.488c-.26-.037-.594-.074-1.188-.074-1.874,0-2.802.594-2.802,2.431v1.559h3.804v3.785h-3.711v15.901h-4.843v-15.901Z"/>
    <path class="cls-3" d="M294.455,70.902c1.521,0,2.765,1.058,2.765,2.579s-1.243,2.561-2.765,2.561c-1.503,0-2.765-1.039-2.765-2.561s1.262-2.579,2.765-2.579ZM292.024,78.361h4.88v19.687h-4.88v-19.687Z"/>
    <path class="cls-3" d="M300.392,87.286c0-5.455,3.266-9.277,8.758-9.277,4.973,0,7.997,3.154,8.108,6.939h-4.509c-.26-1.633-1.559-3.043-3.377-3.043-2.542,0-4.082,2.078-4.082,5.437v1.559c0,3.47,1.577,5.585,4.101,5.585,2.171,0,3.229-1.317,3.451-2.82h4.509c-.408,4.397-3.562,6.735-8.22,6.735-5.437,0-8.739-3.748-8.739-9.481v-1.633Z"/>
    <path class="cls-3" d="M325.739,98.345c-3.841,0-6.476-2.264-6.476-5.975,0-3.525,2.449-5.789,7.014-5.789h4.806v-1.781c0-1.967-1.188-3.062-3.247-3.062-2.004,0-3.154,1.058-3.284,2.635h-4.564c.148-3.284,2.264-6.327,7.941-6.327,4.527,0,7.979,2.115,7.979,6.698v13.304h-4.62v-2.394h-.204c-.779,1.447-2.449,2.69-5.344,2.69ZM331.083,91.591v-2.078h-3.748c-2.152,0-3.21,1.039-3.21,2.542,0,1.837,1.559,2.728,3.191,2.728,2.097,0,3.767-1.28,3.767-3.191Z"/>
    <path class="cls-3" d="M352.18,81.237h.186v-9.853h4.898v26.663h-4.806v-3.043h-.204c-.928,2.022-2.987,3.284-5.678,3.284-4.787,0-7.533-3.562-7.533-9.277v-1.651c0-5.622,2.839-9.259,7.533-9.259,2.672,0,4.731,1.28,5.604,3.136ZM344.053,87.527v1.354c0,3.692,1.726,5.511,4.119,5.511,2.579,0,4.23-1.911,4.23-5.492v-1.373c0-3.451-1.67-5.511-4.268-5.511-2.356,0-4.082,1.818-4.082,5.511Z"/>
    <path class="cls-3" d="M366.877,98.345c-3.841,0-6.476-2.264-6.476-5.975,0-3.525,2.449-5.789,7.014-5.789h4.806v-1.781c0-1.967-1.188-3.062-3.247-3.062-2.004,0-3.154,1.058-3.284,2.635h-4.564c.148-3.284,2.264-6.327,7.941-6.327,4.527,0,7.979,2.115,7.979,6.698v13.304h-4.62v-2.394h-.204c-.779,1.447-2.449,2.69-5.344,2.69ZM372.22,91.591v-2.078h-3.748c-2.152,0-3.21,1.039-3.21,2.542,0,1.837,1.559,2.728,3.191,2.728,2.097,0,3.767-1.28,3.767-3.191Z"/>
  </g>
</svg>