<svg width="120" height="120" viewBox="0 0 120 120" fill="none" xmlns="http://www.w3.org/2000/svg">
<path d="M86.375 101.25L103.75 84L98.5 78.75L86.375 90.625L81.5 85.75L76.25 91.125L86.375 101.25ZM30 45H90V35H30V45ZM90 115C83.0833 115 77.1883 112.562 72.315 107.685C67.4417 102.808 65.0033 96.9133 65 90C64.9967 83.0867 67.435 77.1917 72.315 72.315C77.195 67.4383 83.09 65 90 65C96.91 65 102.807 67.4383 107.69 72.315C112.573 77.1917 115.01 83.0867 115 90C114.99 96.9133 112.552 102.81 107.685 107.69C102.818 112.57 96.9233 115.007 90 115ZM15 110V25C15 22.25 15.98 19.8967 17.94 17.94C19.9 15.9833 22.2533 15.0033 25 15H95C97.75 15 100.105 15.98 102.065 17.94C104.025 19.9 105.003 22.2533 105 25V58.375C103.417 57.625 101.792 57 100.125 56.5C98.4583 56 96.75 55.625 95 55.375V25H25V95.25H55.375C55.7917 97.8333 56.4383 100.292 57.315 102.625C58.1917 104.958 59.3367 107.167 60.75 109.25L60 110L52.5 102.5L45 110L37.5 102.5L30 110L22.5 102.5L15 110ZM30 85H55.375C55.625 83.25 56 81.5417 56.5 79.875C57 78.2083 57.625 76.5833 58.375 75H30V85ZM30 65H65.5C68.6667 61.9167 72.355 59.4783 76.565 57.685C80.775 55.8917 85.2533 54.9967 90 55H30V65Z" fill="#041B3E"/>
</svg>
