<svg width="126" height="120" viewBox="0 0 126 120" fill="none" xmlns="http://www.w3.org/2000/svg">
<path d="M52.5 40V70L77.175 84.5L81.375 78.5L60.375 66.5V40H52.5Z" fill="#041B3E"/>
<path d="M94.08 60C94.8714 64.9697 94.5224 70.0437 93.0572 74.8726C91.5919 79.7016 89.0452 84.1707 85.5924 87.9723C82.1396 91.774 77.8627 94.8177 73.0562 96.8941C68.2497 98.9705 63.0278 100.03 57.75 100C37.275 100 21 84.5 21 65C21 45.5 37.275 30 57.75 30C61.425 30 64.9425 30.5 68.25 31.45V21.15C64.89 20.4 61.3725 20 57.75 20C31.5 20 10.5 40 10.5 65C10.5 90 31.5 110 57.75 110C64.4053 110.026 70.9908 108.708 77.0716 106.131C83.1525 103.555 88.5903 99.7795 93.026 95.0541C97.4618 90.3287 100.795 84.7609 102.804 78.7183C104.814 72.6758 105.455 66.2959 104.685 60H94.08Z" fill="#041B3E"/>
<path d="M105 25V10H94.5V25H78.75V35H94.5V50H105V35H120.75V25H105Z" fill="#041B3E"/>
</svg>
